<svg width="235" height="235" viewBox="0 0 235 235" fill="none" xmlns="http://www.w3.org/2000/svg">
<circle cx="117.5" cy="117.5" r="117.5" fill="#CFBCFF"/>
<path d="M203.3 164C203.3 163.28 202.04 162.92 200.96 162.56C195.38 160.76 193.94 157.52 193.94 146.72V108.56C193.94 75.08 176.84 67.7 160.46 67.7C143 67.7 130.22 75.62 125.18 92.72H124.82C121.94 76.7 109.16 67.7 92.42 67.7C74.96 67.7 62.18 75.62 56.24 92.72H55.88V69.68C49.22 72.02 41.66 73.82 33.2 75.44C31.94 75.62 30.5 75.8 30.5 76.88C30.5 77.42 32.12 77.6 33.38 77.78C39.32 79.04 39.32 86.42 39.32 91.46V135.2C39.32 148.88 39.14 160.58 33.74 162.56C33.02 162.92 32.48 163.28 32.48 164C32.48 164.54 33.2 164.54 34.46 164.54C35.9 164.54 38.78 164 48.5 164C58.4 164 63.62 164.54 64.88 164.54C66.5 164.54 67.4 164.54 67.4 164C67.4 163.46 67.04 162.74 66.32 162.56C59.12 160.94 57.86 152.66 57.86 141.32V115.94C57.86 98.84 63.26 72.2 85.04 72.2C101.6 72.2 107.36 86.42 107.36 100.82V141.32C107.36 152.66 105.74 160.76 98.54 162.92C97.82 163.1 97.46 163.64 97.46 164C97.46 164.36 98.36 164.54 98.9 164.54C100.88 164.54 106.82 164 116.54 164C126.44 164 132.38 164.54 133.64 164.54C134.36 164.54 135.62 164.36 135.62 163.82C135.62 163.1 134.9 162.38 133.46 162.2C126.98 161.12 125.9 155.54 125.9 146.54V115.94C125.9 98.84 131.3 72.2 153.08 72.2C169.64 72.2 175.4 86.42 175.4 100.82V137.18C175.4 152.66 174.5 160.22 166.4 162.56C165.68 162.92 165.14 163.1 165.14 163.64C165.14 164 165.5 164.54 166.58 164.54C167.48 164.54 174.86 164 184.58 164C194.48 164 199.7 164.54 200.78 164.54C201.86 164.54 203.3 164.36 203.3 164Z" fill="#251842"/>
</svg>
