<?xml version="1.0" standalone="no"?>
<!DOCTYPE svg PUBLIC "-//W3C//DTD SVG 20010904//EN"
 "http://www.w3.org/TR/2001/REC-SVG-20010904/DTD/svg10.dtd">
<svg version="1.0" xmlns="http://www.w3.org/2000/svg"
 width="700.000000pt" height="700.000000pt" viewBox="0 0 700.000000 700.000000"
 preserveAspectRatio="xMidYMid meet">
<metadata>
Created by potrace 1.14, written by Peter Selinger 2001-2017
</metadata>
<g transform="translate(0.000000,700.000000) scale(0.100000,-0.100000)"
fill="#000000" stroke="none">
<path d="M2535 4969 c-296 -46 -540 -189 -697 -409 -46 -65 -124 -213 -149
-282 -7 -21 -17 -38 -21 -38 -4 0 -8 153 -8 341 0 286 -2 340 -14 336 -84 -32
-445 -122 -669 -167 -89 -18 -90 -51 -3 -64 22 -4 60 -18 83 -32 51 -30 89
-102 104 -196 7 -43 9 -398 6 -1004 -4 -1026 -5 -1058 -63 -1184 -30 -66 -48
-86 -97 -111 -21 -11 -37 -27 -37 -37 0 -16 33 -17 518 -16 396 0 517 3 516
12 -1 7 -2 16 -2 21 -1 5 -25 17 -52 27 -142 51 -201 176 -220 464 -13 192
-12 886 0 1073 42 607 252 1002 594 1114 69 22 99 26 206 27 104 1 137 -3 200
-22 168 -53 279 -150 360 -315 106 -218 113 -296 107 -1222 -4 -690 -5 -735
-24 -820 -37 -163 -111 -270 -216 -310 -26 -10 -47 -22 -47 -26 0 -5 0 -12 0
-16 0 -9 1118 -8 1127 1 17 16 -19 42 -83 61 -84 23 -142 76 -167 149 -35 101
-39 199 -34 837 3 515 7 642 20 729 58 369 162 610 334 778 80 78 187 137 293
163 81 20 271 17 345 -5 222 -66 366 -230 442 -501 l28 -100 0 -850 0 -850
-23 -90 c-37 -147 -87 -211 -205 -265 -48 -22 -67 -35 -65 -47 3 -15 55 -16
558 -15 305 0 561 1 569 1 28 2 -11 30 -78 56 -43 16 -80 39 -103 63 -87 91
-88 102 -88 915 0 375 -5 738 -10 807 -28 358 -124 612 -297 785 -103 103
-226 171 -381 212 -186 49 -497 43 -690 -13 -317 -92 -549 -319 -656 -642 -10
-29 -21 -51 -24 -48 -3 4 -14 39 -24 79 -60 237 -226 441 -451 552 -150 74
-258 97 -472 101 -99 1 -207 -1 -240 -7z"/>
</g>
</svg>
